<?xml version="1.0" encoding="iso-8859-1"?>
<!-- Generator: Adobe Illustrator 19.0.0, SVG Export Plug-In . SVG Version: 6.00 Build 0)  -->
<svg version="1.1" id="logistic" xmlns="http://www.w3.org/2000/svg" xmlns:xlink="http://www.w3.org/1999/xlink" x="0px" y="0px"
	 viewBox="0 0 496 496" style="enable-background:new 0 0 496 496;" xml:space="preserve">
<g>
	<g>
		<g>
			<path d="M128,184c30.88,0,56-25.12,56-56s-25.12-56-56-56s-56,25.12-56,56S97.12,184,128,184z M128,88c22.056,0,40,17.944,40,40
				c0,22.056-17.944,40-40,40c-22.056,0-40-17.944-40-40C88,105.944,105.944,88,128,88z"/>
			<path d="M336,264c-39.696,0-72,32.304-72,72s32.304,72,72,72s72-32.304,72-72S375.696,264,336,264z M336,392
				c-30.88,0-56-25.12-56-56s25.12-56,56-56s56,25.12,56,56S366.88,392,336,392z"/>
			<path d="M400,120c13.232,0,24-10.768,24-24s-10.768-24-24-24s-24,10.768-24,24S386.768,120,400,120z M400,88c4.408,0,8,3.592,8,8
				s-3.592,8-8,8c-4.408,0-8-3.592-8-8S395.592,88,400,88z"/>
			<path d="M400,0H132.536C59.456,0,0,59.456,0,132.536c0,29.824,10.224,59.112,28.872,82.576l183.296,222.536
				C242.704,474.736,287.776,496,335.816,496C424.144,496,496,424.144,496,335.816V96C496,43.064,452.936,0,400,0z M479.592,88
				H463.44c-1.464-11.664-6.072-22.336-12.952-31.184L461.904,45.4C471.616,57.264,477.992,71.936,479.592,88z M408,16.408
				c16.064,1.6,30.736,7.984,42.592,17.688l-11.408,11.408c-8.848-6.88-19.52-11.488-31.184-12.952V16.408z M448,96
				c0,26.472-21.528,48-48,48s-48-21.528-48-48s21.528-48,48-48S448,69.528,448,96z M160,16h34.744L175.28,35.464
				c-4.912-2.504-10.016-4.624-15.28-6.32V16z M96,21.952v7.192c-5.264,1.696-10.368,3.816-15.28,6.32l-4.736-4.736
				C82.312,27.192,89.016,24.264,96,21.952z M30.728,75.976l4.736,4.744C32.96,85.632,30.84,90.736,29.144,96h-7.192
				C24.264,89.016,27.192,82.312,30.728,75.976z M27.664,183.088c-3.56-7.392-6.36-15.12-8.296-23.088h9.776
				c1.696,5.264,3.816,10.368,6.32,15.28L27.664,183.088z M41.312,205.056c-1.936-2.44-3.752-4.952-5.472-7.528l19.568-19.568
				l-3.152-5.336c-4.16-7.04-7.304-14.648-9.36-22.624l-1.552-6h-24.72C16.248,140.192,16,136.376,16,132.536
				c0-7.016,0.728-13.856,1.928-20.536h23.424l1.544-6c2.056-7.976,5.208-15.584,9.36-22.624l3.152-5.336L39.72,62.36
				c6.48-8.544,14.08-16.152,22.624-22.624l15.68,15.688l5.336-3.152c7.04-4.16,14.648-7.304,22.624-9.36L112,41.344V17.928
				c6.68-1.2,13.52-1.928,20.536-1.928H144v25.344l6,1.544c7.976,2.056,15.584,5.208,22.624,9.36l5.336,3.152l17.92-17.92
				l22.632,22.632l-17.92,17.92l3.152,5.336c4.16,7.04,7.304,14.648,9.36,22.624l1.552,6.008H240v32h-25.344l-1.544,6
				c-2.056,7.976-5.208,15.584-9.36,22.624l-3.152,5.336l17.92,17.92l-22.632,22.632l-17.92-17.92l-5.336,3.152
				c-7.04,4.16-14.648,7.304-22.624,9.36L144,214.656V240h-32v-25.344l-6-1.544c-7.976-2.056-15.584-5.208-22.624-9.36L78.04,200.6
				l-22.152,22.152L41.312,205.056z M208,407.424L182.12,376h24.024c2.496,8.12,5.76,16,9.76,23.536L208,407.424z M296.008,474.208
				H296c-10.28-2.944-20.152-7.016-29.488-12.144l5.96-5.96c7.536,4,15.416,7.264,23.536,9.76V474.208z M376,474.184v-8.328
				c8.12-2.496,16-5.76,23.536-9.76l5.896,5.896C396.192,467.112,386.328,471.184,376,474.184z M462,405.424l-5.896-5.888
				c4-7.536,7.264-15.416,9.76-23.536h8.328C471.184,386.328,467.12,396.192,462,405.424z M480,335.816
				c0,8.256-0.856,16.304-2.192,24.184h-24.2l-1.544,6.008c-2.776,10.792-7.08,21.168-12.784,30.84l-3.152,5.336l17.056,17.056
				c-9.344,13.128-20.816,24.6-33.936,33.952l-17.056-17.056l-5.336,3.152c-9.672,5.704-20.048,10.008-30.84,12.784L360,453.608
				v24.2c-7.88,1.336-15.928,2.192-24.184,2.192c-8.072,0-15.992-0.88-23.816-2.184v-24.208l-6.008-1.544
				c-10.792-2.776-21.168-7.08-30.84-12.784l-5.336-3.152L252.6,453.344c-10.312-7.312-19.84-15.864-28.08-25.872l-6.296-7.648
				l17.648-17.648l-3.152-5.336c-5.704-9.672-10.008-20.048-12.784-30.84l-1.544-6H192v-48h26.392l1.544-6.008
				c2.776-10.792,7.08-21.168,12.784-30.84l3.152-5.336l-18.664-18.664l33.944-33.944l18.664,18.664l5.336-3.152
				c9.672-5.704,20.048-10.008,30.84-12.784l6.008-1.544V192h48v26.392l6.008,1.544c10.792,2.776,21.168,7.08,30.84,12.784
				l5.336,3.152l18.664-18.664l33.944,33.944l-18.664,18.664l3.152,5.336c5.704,9.672,10.008,20.048,12.784,30.84l1.544,6.008H480
				V335.816z M480,296h-14.136c-2.496-8.12-5.76-16-9.76-23.536l21.32-21.32l-56.568-56.568l-21.32,21.32
				c-7.536-4-15.416-7.264-23.536-9.76V176h-80v30.136c-8.12,2.496-16,5.76-23.536,9.76l-21.32-21.32l-56.568,56.568l21.32,21.32
				c-4,7.536-7.264,15.416-9.76,23.536H176v72.576L66.104,235.152l14.616-14.616c4.912,2.504,10.016,4.624,15.28,6.32V256h64
				v-29.144c5.264-1.696,10.368-3.816,15.28-6.32l20.6,20.6l45.256-45.256l-20.6-20.6c2.504-4.912,4.624-10.016,6.32-15.28H256V96
				h-29.144c-1.696-5.264-3.816-10.368-6.32-15.28l20.6-20.6L197.016,16H392v16.552c-11.664,1.464-22.336,6.072-31.184,12.952
				L349.08,33.768L337.768,45.08l11.736,11.736c-6.88,8.848-11.488,19.52-12.952,31.184H320v16h16.552
				c1.464,11.664,6.072,22.336,12.952,31.184l-11.736,11.736l11.312,11.312l11.736-11.736c8.848,6.88,19.52,11.488,31.184,12.952
				V176h16v-16.552c11.664-1.464,22.336-6.072,31.184-12.952l11.736,11.736l11.312-11.312l-11.736-11.736
				c6.88-8.848,11.488-19.52,12.952-31.184H480V296z"/>
			<rect x="328" y="328" width="16" height="16"/>
			<rect x="360" y="328" width="16" height="16"/>
			<rect x="328" y="296" width="16" height="16"/>
			<rect x="296" y="328" width="16" height="16"/>
			<rect x="328" y="360" width="16" height="16"/>
		</g>
	</g>
</g>
<g>
</g>
<g>
</g>
<g>
</g>
<g>
</g>
<g>
</g>
<g>
</g>
<g>
</g>
<g>
</g>
<g>
</g>
<g>
</g>
<g>
</g>
<g>
</g>
<g>
</g>
<g>
</g>
<g>
</g>
</svg>
